HIERARCHY
ROOT Hips
{
 OFFSET 0.000000 0.000000 0.000000
 CHANNELS 6 Xposition Yposition Zposition Yrotation Xrotation Zrotation
 JOINT Chest
 {
  OFFSET 0.000000 10.385163 0.011643
  CHANNELS 3 Yrotation Xrotation Zrotation
  JOINT Chest2
  {
   OFFSET 0.000000 11.579334 -0.021150
   CHANNELS 3 Yrotation Xrotation Zrotation
   JOINT Chest3
   {
    OFFSET 0.000000 10.463212 0.000000
    CHANNELS 3 Yrotation Xrotation Zrotation
    JOINT Chest4
    {
     OFFSET 0.000000 10.463212 0.000000
     CHANNELS 3 Yrotation Xrotation Zrotation
     JOINT Neck
     {
      OFFSET 0.000000 14.544862 0.000000
      CHANNELS 3 Yrotation Xrotation Zrotation
      JOINT Head
      {
       OFFSET 0.000000 9.730630 -0.050295
       CHANNELS 3 Yrotation Xrotation Zrotation
       End Site
       {
        OFFSET 0.000000 18.757589 -0.026270
       }
      }
     }
     JOINT RightCollar
     {
      OFFSET -2.985174 8.102313 0.000000
      CHANNELS 3 Yrotation Xrotation Zrotation
      JOINT RightShoulder
      {
       OFFSET -13.558590 0.000000 0.000000
       CHANNELS 3 Yrotation Xrotation Zrotation
       JOINT RightElbow
       {
        OFFSET -28.208579 0.000000 0.000000
        CHANNELS 3 Yrotation Xrotation Zrotation
        JOINT RightWrist
        {
         OFFSET -23.322907 0.000000 0.010349
         CHANNELS 3 Yrotation Xrotation Zrotation
         End Site
         {
          OFFSET -17.603338 0.000000 0.000000
         }
        }
       }
      }
     }
     JOINT LeftCollar
     {
      OFFSET 2.985174 8.102313 0.000000
      CHANNELS 3 Yrotation Xrotation Zrotation
      JOINT LeftShoulder
      {
       OFFSET 13.558590 0.000000 0.000000
       CHANNELS 3 Yrotation Xrotation Zrotation
       JOINT LeftElbow
       {
        OFFSET 28.208579 0.000000 0.000000
        CHANNELS 3 Yrotation Xrotation Zrotation
        JOINT LeftWrist
        {
         OFFSET 23.322907 0.000000 0.010349
         CHANNELS 3 Yrotation Xrotation Zrotation
         End Site
         {
          OFFSET 17.603338 0.000000 0.000000
         }
        }
       }
      }
     }
    }
   }
  }
 }
 JOINT RightHip
 {
  OFFSET -8.341224 -0.057053 -0.005822
  CHANNELS 3 Yrotation Xrotation Zrotation
  JOINT RightKnee
  {
   OFFSET 0.000000 -44.280013 0.005508
   CHANNELS 3 Yrotation Xrotation Zrotation
   JOINT RightAnkle
   {
    OFFSET 0.000000 -43.261728 0.009315
    CHANNELS 3 Yrotation Xrotation Zrotation
    JOINT RightToe
    {
     OFFSET 0.000000 -8.082955 18.257715
     CHANNELS 3 Yrotation Xrotation Zrotation
     End Site
     {
      OFFSET 0.000000 -1.634678 7.189621
     }
    }
   }
  }
 }
 JOINT LeftHip
 {
  OFFSET 8.341224 -0.057053 -0.005822
  CHANNELS 3 Yrotation Xrotation Zrotation
  JOINT LeftKnee
  {
   OFFSET 0.000000 -44.280013 0.005508
   CHANNELS 3 Yrotation Xrotation Zrotation
   JOINT LeftAnkle
   {
    OFFSET 0.000000 -43.261728 0.009315
    CHANNELS 3 Yrotation Xrotation Zrotation
    JOINT LeftToe
    {
     OFFSET 0.000000 -8.082955 18.257715
     CHANNELS 3 Yrotation Xrotation Zrotation
     End Site
     {
      OFFSET 0.000000 -1.634678 7.189621
     }
    }
   }
  }
 }
}
MOTION
Frames: 7
Frame Time: 0.016667
-96.755370 97.662715 -217.816289 -10.709600 -4.915566 -1.102308 -0.939506 7.199854 1.846122 -0.445388 3.196213 0.833437 -0.445378 3.196229 0.833439 -0.338303 2.396583 0.627250 1.789545 11.479989 -0.899523 3.829879 -14.811058 -2.509924 -0.029287 -3.309537 4.851516 -9.418085 -10.343650 74.521917 7.020951 18.206426 0.690703 6.394885 -0.696734 -2.982378 0.086970 -3.882790 -11.830382 0.539788 -11.449689 -74.764903 -1.722116 7.958930 1.683116 -1.187435 -3.786290 0.543635 -9.920861 -12.034363 -3.500259 -8.048023 43.023229 -5.978686 -6.321663 -6.733486 9.696160 0.011969 -2.059349 0.189846 3.280832 2.640227 2.191243 -4.072719 4.885945 -0.229835 6.387253 -3.021362 -4.094270 -0.000000 0.000000 -0.000000
-97.088009 97.703225 -217.719695 -9.566874 -4.857231 -1.193928 -0.833973 7.145460 1.843682 -0.398350 3.172436 0.830637 -0.398350 3.172436 0.830637 -0.303003 2.378792 0.624889 1.795512 11.505681 -0.769540 3.783453 -14.768517 -2.261878 -0.041948 -3.337661 4.861175 -9.254305 -10.419937 74.574224 7.011022 18.048182 0.611875 6.286661 -0.681382 -2.847106 0.130493 -3.944296 -11.752350 0.871162 -11.269126 -74.680200 -1.681710 8.202560 1.775777 -1.159803 -3.722244 0.536077 -9.205154 -11.802635 -3.297808 -5.426861 41.454218 -4.815101 -6.387978 -7.458461 9.615021 -0.000000 -0.000000 0.000000 3.077394 2.718262 2.420856 -4.463353 4.542845 -0.157759 5.841071 -2.814254 -4.213354 -0.000000 0.000000 0.000000
-97.421249 97.721523 -217.623897 -8.381798 -4.782344 -1.254284 -0.754786 7.101185 1.835631 -0.362931 3.153078 0.825791 -0.362928 3.153072 0.825790 -0.276391 2.364316 0.621059 1.786741 11.471840 -0.651008 3.716120 -14.836415 -2.031952 -0.062587 -3.357890 4.870588 -9.088426 -10.539135 74.552851 7.084944 18.112522 0.622741 6.265461 -0.659588 -2.827216 0.157632 -3.984360 -11.681378 1.186198 -11.123981 -74.561249 -1.666952 8.143323 1.788605 -1.157603 -3.763039 0.534188 -8.076870 -11.418414 -3.222216 -3.887398 39.339477 -4.213346 -6.098844 -8.125657 9.432967 0.008215 0.589159 -0.021234 3.341957 2.764569 2.634902 -5.243643 4.172007 -0.065250 5.166823 -2.604297 -4.303720 -0.000000 0.000000 0.000000
-97.765690 97.723760 -217.525478 -7.172264 -4.702430 -1.284675 -0.691120 7.064185 1.821129 -0.334320 3.136918 0.818346 -0.334311 3.136919 0.818346 -0.254870 2.352248 0.615323 1.766326 11.400762 -0.542210 3.631974 -14.973237 -1.816992 -0.087068 -3.375388 4.876966 -8.913598 -10.683727 74.489254 7.194110 18.282119 0.673802 6.282207 -0.632931 -2.861124 0.172950 -4.011293 -11.612135 1.492118 -11.002929 -74.427868 -1.648675 7.917151 1.772776 -1.167195 -3.857535 0.537984 -6.644346 -10.869362 -3.217141 -3.022283 36.773033 -3.984867 -5.682987 -8.731410 9.182536 0.006991 0.294899 -0.000471 3.912715 2.794455 2.832428 -6.282867 3.782773 0.050616 4.417231 -2.394647 -4.388556 0.000000 0.000000 0.000000
-98.135495 97.712668 -217.414273 -5.946220 -4.661426 -1.270435 -0.639469 7.045135 1.792095 -0.310908 3.128691 0.804661 -0.310908 3.128691 0.804661 -0.237246 2.346115 0.604939 1.710304 11.325330 -0.446686 3.485042 -15.118496 -1.611771 -0.106612 -3.386121 4.882049 -8.734546 -10.856259 74.425610 7.278531 18.445423 0.708212 6.307630 -0.619185 -2.910268 0.188255 -4.029523 -11.544488 1.731720 -10.907631 -74.281683 -1.566991 7.687596 1.791044 -1.164711 -3.936469 0.529322 -5.057224 -10.150058 -3.292586 -1.912430 34.073228 -3.560691 -5.424491 -9.289238 8.971058 -0.000000 0.000000 -0.000000 4.442180 2.884895 3.018860 -7.284429 3.347753 0.149511 3.652803 -2.173605 -4.491029 0.000000 -0.000000 0.000000
-98.534327 97.689131 -217.289593 -4.675702 -4.682536 -1.209528 -0.614475 7.058965 1.746434 -0.299207 3.134958 0.784030 -0.299226 3.134934 0.784026 -0.228401 2.350806 0.589407 1.606586 11.243637 -0.362208 3.250956 -15.276066 -1.406565 -0.116769 -3.386802 4.889031 -8.551167 -11.074452 74.365708 7.327136 18.590063 0.719733 6.345004 -0.632803 -2.975948 0.205822 -4.035999 -11.476138 1.870240 -10.846085 -74.121598 -1.404133 7.479955 1.862766 -1.142552 -3.979304 0.503780 -3.138728 -9.206922 -3.476834 -0.340558 31.235388 -2.744793 -5.510559 -9.878317 8.781975 0.000000 0.000000 -0.000000 4.881350 3.065489 3.203397 -8.220601 2.848348 0.219930 2.868868 -1.928631 -4.614336 0.000000 0.000000 0.000000
-98.958523 97.652266 -217.152127 -3.388492 -4.745489 -1.107076 -0.601396 7.091734 1.687883 -0.292628 3.149641 0.757885 -0.292647 3.149610 0.757880 -0.223352 2.361829 0.569774 1.467271 11.159046 -0.290923 2.953798 -15.439084 -1.210565 -0.121887 -3.380829 4.895230 -8.363219 -11.320673 74.302792 7.349925 18.728762 0.716013 6.390032 -0.658744 -3.058168 0.223547 -4.033732 -11.408676 1.942687 -10.809831 -73.952189 -1.180866 7.269098 1.972686 -1.107600 -4.005893 0.467385 -1.080623 -8.072136 -3.695629 1.377006 28.195104 -1.900562 -5.749410 -10.409949 8.598338 0.000000 -0.000000 -0.000000 5.278980 3.308224 3.384407 -9.117738 2.302971 0.271970 2.069788 -1.672979 -4.756270 0.000000 0.000000 0.000000
